
<global>
amp_veltrack=0
ampeg_release=0.35
master-volume=-6.0
</global>

<group>
group_label=PP
lpc_hicc1=42
lpc_locc1=0

<region>
hikey=a#3
hivel=127
lokey=a3
loop_end=178958
loop_mode=loop_continuous
loop_start=60713
loop_xfade=14328
lovel=0
lpc=9HUAQgmKuMLgrcFCILJAwlRy3EF248bBOmD3QIg/fb/5cdpAoS3awDblgUCAp/e/3L85P4W+DsC5gBtA1Ekrv3wzoD67fVo/vdA4wAROvj9kNoO+O2nrP1C67L+qrQA/
lpc_rms=-46.42
pitch_keycenter=a#3
sample=Trumpet_flatter_PP_A#3.opus
tune=-6
</region>

<region>
hikey=a#4
hivel=127
lokey=a4
loop_end=175039
loop_mode=loop_continuous
loop_start=59384
loop_xfade=14014
lovel=0
lpc=oL0kQmfLD8OS2VdDMmA6wzdL50Jv2YXCvlwaQjlGp8HrLExBP3towUTzvEEyqr3BhDwDQay9gkCFqPO+af0IwUkwOUFSBgDB3oEIQKj8OkDH8dfAhE0UQQsG38D7YRNA
lpc_rms=-36.25
pitch_keycenter=a#4
sample=Trumpet_flatter_PP_A#4.opus
tune=-10
</region>

<region>
hikey=a#5
hivel=127
lokey=a5
loop_end=178992
loop_mode=loop_continuous
loop_start=60725
loop_xfade=14330
lovel=0
lpc=fYjyQUk0RMIPbUVCLMEAwjeEp0EhiRvBWU8BQd0UuMC8tyBBlYUUwfSaIUFDaEHARuiKP6Flkj8XLZlAyGuZwCQCv0AE9Ue/6xA+Pw4fL0Ax7wU/pk0EwEWMJUGY5iTB
lpc_rms=-30.99
pitch_keycenter=a#5
sample=Trumpet_flatter_PP_A#5.opus
tune=-54
</region>

<region>
hikey=c4
hivel=127
lokey=b3
loop_end=179148
loop_mode=loop_continuous
loop_start=60778
loop_xfade=14343
lovel=0
lpc=I9QlQnPJ7MJ2gfRC5k5twoBdA0I0R/DBcMtFQSETBcA4o0NAxHjYv9xWFcCd/eU/wTrqP0J2JsA5tDBAPDaHvz1C2r8DuwpARsKewKv0tUAcZw/AchSaQFTO98DreGBA
lpc_rms=-45.02
pitch_keycenter=c4
sample=Trumpet_flatter_PP_C4.opus
tune=-3
</region>

<region>
hikey=c5
hivel=127
lokey=b4
loop_end=177592
loop_mode=loop_continuous
loop_start=60250
loop_xfade=14218
lovel=0
lpc=JqflQR68wMK+lwtDC/fswmpvnULW1VfCdaEIQuChjMEVtiRBbpGuwKk1MD8ukEO/9g8OQLw70T5HfEzAcphHQCZmDL6nyWfAObWPQKBvS8DXxBBAnioqvcTq7L/cnZI/
lpc_rms=-36.41
pitch_keycenter=c5
sample=Trumpet_flatter_PP_C5.opus
tune=+15
</region>

<region>
hikey=F6
hivel=127
lokey=b5
loop_end=209961
loop_mode=loop_continuous
loop_start=71232
loop_xfade=16810
lovel=0
lpc=XcLZQTbgAMKdfNNBikZxwVlXgkG3IvbANbEZQcM9yb/LzZ9AvWl4P0/Vd0DYeQZAUNImQM3cKEDaPhxA791FQIkCEECi0yhAJaQhQGcPfkAdeJ+/adYtQajos8FGH2xB
lpc_rms=-27.10
pitch_keycenter=C6
sample=Trumpet_flatter_PP_C6.opus
tune=-33
</region>

<region>
hikey=d4
hivel=127
lokey=c#4
loop_end=177307
loop_mode=loop_continuous
loop_start=60153
loop_xfade=14195
lovel=0
lpc=02wDQisxzsL4FwJD36uvwl9XO0JOofPBzbSFQeLVwcCtohVAkYXXvwiRtj/tFoM/0KIZwKpYkL5fBVtAz+hewIcqpD+5/RtAf7u3wEkDu0CF6KDAQEfTQI7IycA+8B5A
lpc_rms=-43.67
pitch_keycenter=d4
sample=Trumpet_flatter_PP_D4.opus
tune=-8
</region>

<region>
hikey=d5
hivel=127
lokey=c#5
loop_end=179123
loop_mode=loop_continuous
loop_start=60769
loop_xfade=14341
lovel=0
lpc=Iv4XQhjh6cJheRJDZcrBwstMQEKAxPjByTeXQWrC78BYyahAQUQIwQXUE0EvhsG/Awa4wCAXgkAxp8w/5dxgvqEapcAwldJA+0DMwM8ZzEAR/tLAlCBAQZD/YcFwINFA
lpc_rms=-34.37
pitch_keycenter=d5
sample=Trumpet_flatter_PP_D5.opus
tune=+9
</region>

<region>
hikey=e4
hivel=127
lokey=d#4
loop_end=179018
loop_mode=loop_continuous
loop_start=60734
loop_xfade=14332
lovel=0
lpc=Mp0oQjzeDMPG0j9DwJoMw2oLm0JudlvCmTwVQmBjg8HTWQJB9vGLwBqVer8kM5g/JnAEP5EYiL+ulpxAKvLjwDVhmEBRjeS/0XJPwEmU4EDVDLHAxG2GQBsffsBCKus/
lpc_rms=-38.99
pitch_keycenter=e4
sample=Trumpet_flatter_PP_E4.opus
tune=-4
</region>

<region>
hikey=e5
hivel=127
lokey=d#5
loop_end=179438
loop_mode=loop_continuous
loop_start=60876
loop_xfade=14366
lovel=0
lpc=/OACQhX0pMKw+rBCChNxwkHFLELYMdLBNXIYQXeyrsBQ4xRAk5ikQCrnU8BaJy1AwW3FwOT5RUDUyV5AVDbkv4FUxz/1XzPAO3QRwIp7C0EgmubAps8oQa+OfMEqCBxB
lpc_rms=-35.77
pitch_keycenter=e5
sample=Trumpet_flatter_PP_E5.opus
tune=-28
</region>

<region>
hivel=127
key=f#3
loop_end=178107
loop_mode=loop_continuous
loop_start=60425
loop_xfade=14259
lovel=0
lpc=CoXmQf3kmsIkD5xCh1Yswh4M20Gcla3BXngsQTc2c8CnFmVAtONMwARlB720kJg/8sTRPcVE6b+xhUNAOg8FwIlaJD+E4Gc/6s08wG4vJkBBzvy/tmxLQF77PsD8FYY/
lpc_rms=-47.97
sample=Trumpet_flatter_PP_F#3.opus
tune=+15
</region>

<region>
hikey=f#4
hivel=127
lokey=f4
loop_end=178111
loop_mode=loop_continuous
loop_start=60426
loop_xfade=14260
lovel=0
lpc=jyoWQoxH9cIxkyRDHYn1wiG0lEKZ9k/CRRXvQUezPMGYiA1BHYcgwWbEtUDrB4o/TmFRwD6X6z9ZdhhAIj35wMTk5UC+x7w/KLYIwXb83EB5CjzAZ4eJQC3ypMAerARA
lpc_rms=-40.13
pitch_keycenter=f#4
sample=Trumpet_flatter_PP_F#4.opus
tune=-5
</region>

<region>
hikey=f#5
hivel=127
lokey=f5
loop_end=178598
loop_mode=loop_continuous
loop_start=60591
loop_xfade=14299
lovel=0
lpc=W+omQoDCrsKZ/qpCozhWwnHfGUJcwMjBsHJ1QRu9vcAq+PK+FCSfQNIUCUDdUU3AoDkvQOnLcD+uSZI/Id8iv16JpT9AigZA8OPGv5sW20BP5hbBuqCHQRWGpcFHQHRB
lpc_rms=-33.23
pitch_keycenter=f#5
sample=Trumpet_flatter_PP_F#5.opus
tune=-37
</region>

<region>
hikey=g#3
hivel=127
lokey=g3
loop_end=181167
loop_mode=loop_continuous
loop_start=61463
loop_xfade=14504
lovel=0
lpc=uDcFQlczvcJRL8hCdClSwqhL3UFqKrPBnvkhQQluTcAlYppAGwpywPkLpLuBVLQ/dQFjPiiYPMAzBmRAsAXpv2+3KT8Du7w+MngCwK+AnD9fSFq+GkAEQDRMNMAK/5I/
lpc_rms=-46.54
pitch_keycenter=g#3
sample=Trumpet_flatter_PP_G#3.opus
</region>

<region>
hikey=g#4
hivel=127
lokey=g4
loop_end=179014
loop_mode=loop_continuous
loop_start=60732
loop_xfade=14332
lovel=0
lpc=tqcrQscUDMPSGUBDcrMXw/EPv0K3FnzCr8wMQoUWWsHf0o5AalE0v2EJDsBkq1JAXeZ5wHPCc0DMHgJAXXbawOAhdUC+28A+iixLwA8fZkB+Jau/+qgmQAbYmMCDkzJA
lpc_rms=-38.06
pitch_keycenter=g#4
sample=Trumpet_flatter_PP_G#4.opus
tune=-23
</region>

<region>
hikey=g#5
hivel=127
lokey=g5
loop_end=177931
loop_mode=loop_continuous
loop_start=60365
loop_xfade=14245
lovel=0
lpc=suLNQZgfMMLDfDdCPHj7weU6u0G6Lh3BdavZQK+6QMCqI5ZALe2xvtxJOUAXJ7s/D4yfvrjjQ0CuY9E/xabivtqSRkCKSwRANBfhvtiPgEA5zDvAg9a+QCGnyr8s3JhA
lpc_rms=-33.19
pitch_keycenter=g#5
sample=Trumpet_flatter_PP_G#5.opus
tune=-48
</region>
</group>

<group>
group_label=MF
lpc_hicc1=84
lpc_locc1=43

<region>
hikey=a#3
hivel=127
lokey=a3
loop_end=180768
loop_mode=loop_continuous
loop_start=61327
loop_xfade=14473
lovel=0
lpc=LnGpQX0Xi8KFeMdCqYapwokVX0IXmxbCgF/JQUmFYsFGIP9AqvwEwdqmQ0FOn0XBV9LbQAUX/b8oWOk/dsqLwN7+xUAfJq/AAsJCQKvb5r5nl4a/QwGFP7ppuL5lWKc9
lpc_rms=-38.00
pitch_keycenter=a#3
sample=Trumpet_flatter_MF_A#3.opus
tune=+16
</region>

<region>
hikey=a#4
hivel=127
lokey=a4
loop_end=176790
loop_mode=loop_continuous
loop_start=59978
loop_xfade=14154
lovel=0
lpc=detqQV2vPsKAtJZCV7igwqHwiEL58kfCxVX9QeUFksHqczNBjE8DwYBo7EB7O+DAfWmwQLOMVMD4XytA3thTwCWNVEAQb/q/U7RlvuxWF0BM3k/AqIQXQEqGHb+HNu89
lpc_rms=-30.05
pitch_keycenter=a#4
sample=Trumpet_flatter_MF_A#4.opus
tune=-13
</region>

<region>
hikey=a#5
hivel=127
lokey=a5
loop_end=178719
loop_mode=loop_continuous
loop_start=60632
loop_xfade=14308
lovel=0
lpc=M0xKQY8IZMF5Ho1BhIotwXlKMUFCD5LAtenPQM9o8L8OlJNA0ws3P+MPkD8KWX9AlDtbvwM6hUDi1lU/1TaNP2Sjf0D+0Vq/qWKVQNwYur9RasVANIp3wJszBkGU8kbA
lpc_rms=-26.16
pitch_keycenter=a#5
sample=Trumpet_flatter_MF_A#5.opus
tune=-59
</region>

<region>
hikey=c4
hivel=127
lokey=b3
loop_end=178916
loop_mode=loop_continuous
loop_start=60699
loop_xfade=14324
lovel=0
lpc=JEmrQVIzlMK3ve1CoEjzwiUywEKawofCWuY1Qh0Z38F/h3tB3XIkwdRYIEEMtiDBEhryQIXujcD+Q2NAJ8KkwGp/3UDOudPAC1xvQCEGqD7LLGDAi7WDQPQ1JsCmLUM/
lpc_rms=-35.70
pitch_keycenter=c4
sample=Trumpet_flatter_MF_C4.opus
tune=+10
</region>

<region>
hikey=c5
hivel=127
lokey=b4
loop_end=178536
loop_mode=loop_continuous
loop_start=60570
loop_xfade=14294
lovel=0
lpc=8vwdQUBZ9MExwj9C9xNPwhr7MkLbFQDCHJiUQd39B8ETfYJAy+NJwCF6ZUCBfYbA42qaQIbmicBEgE9AgMgSwLDm/D/60rq/NV9cPBH4+z9ZtkHA9kEyQIF8xr+icNc+
lpc_rms=-31.69
pitch_keycenter=c5
sample=Trumpet_flatter_MF_C5.opus
tune=+9
</region>

<region>
hikey=F6
hivel=127
lokey=b5
loop_end=216540
loop_mode=loop_continuous
loop_start=73463
loop_xfade=17337
lovel=0
lpc=pxlwQawyi8FaJX9B3mAlwWxNQ0EQEt/A+gUNQUA9dMCdgcNALPDPv2oujECNNou+vthXQDkD6j6IkzhAGuNGP2fyIUBUE6M/vRjlP05dF0BjDem9aP3QQOmUSsFr/AVB
lpc_rms=-26.92
pitch_keycenter=C6
sample=Trumpet_flatter_MF_C6.opus
tune=-35
</region>

<region>
hikey=d4
hivel=127
lokey=c#4
loop_end=178901
loop_mode=loop_continuous
loop_start=60694
loop_xfade=14323
lovel=0
lpc=rfmHQRdbaMJnGsNCY1rdwpQgyEIc75rCzHxWQjUJDMII7LtB7RKGwW/JU0GAvzDBhUwVQcwW78DQdMNA6Xq9wEJs5kDg5gfB+TX9QOq6d8DU5yq/uIgpQEYq9b/hbBo/
lpc_rms=-34.72
pitch_keycenter=d4
sample=Trumpet_flatter_MF_D4.opus
tune=-5
</region>

<region>
hikey=d5
hivel=127
lokey=c#5
loop_end=178543
loop_mode=loop_continuous
loop_start=60572
loop_xfade=14294
lovel=0
lpc=22MxQV3GAMI2Ry9CD7wYwq5b2UE9MJTB4zA/QVQTxsCi61VAKilSwOc+lkD9scfA7xP0QKCe58CHLqlAwYpRwJjfkz+rgglArNqewB88wkCiZZHAAW8eQHFxzr8TR1s/
lpc_rms=-28.74
pitch_keycenter=d5
sample=Trumpet_flatter_MF_D5.opus
tune=-7
</region>

<region>
hikey=e4
hivel=127
lokey=d#4
loop_end=178486
loop_mode=loop_continuous
loop_start=60553
loop_xfade=14290
lovel=0
lpc=WaSRQV0Gd8IjNsZCf2vPwvaIqEIrx2zCpMgbQlDw5MEVCsRBaICcwaWwYEHgxTHBBLcnQYlQIMF40ipBEQs4wYWTIkGBtOTAjOU1QHpj2D8sqYnAbNxoQBlx0r9BJvw+
lpc_rms=-33.76
pitch_keycenter=e4
sample=Trumpet_flatter_MF_E4.opus
tune=-3
</region>

<region>
hikey=e5
hivel=127
lokey=d#5
loop_end=178690
loop_mode=loop_continuous
loop_start=60622
loop_xfade=14306
lovel=0
lpc=DmlDQdkK/METThVCnLfxwcJgy0H3uKDB9GssQVMVlsBxz5BAz3eWwD1An0AE95jAsDZ6QLPi878ckFs/T946v4NYvT/EbLO/VPV5vYC0AUBq/TrAQvWRQGpWlcDX2BxA
lpc_rms=-27.66
pitch_keycenter=e5
sample=Trumpet_flatter_MF_E5.opus
tune=-31
</region>

<region>
hivel=127
key=f#3
loop_end=177990
loop_mode=loop_continuous
loop_start=60385
loop_xfade=14250
lovel=0
lpc=t/zyQWvSyMInpwpDpo7Xwt0KhUKDo0rCSvMWQqkVjcGBgpRAlUJRwDj3dkD5Rq6/oq2gv63GoD8Dgbs/COOewFH31EAxgLvAmrheQLebzb6wPQjACO4bQKu+nL/nD4A+
lpc_rms=-40.57
sample=Trumpet_flatter_MF_F#3.opus
tune=+48
</region>

<region>
hikey=f#4
hivel=127
lokey=f4
loop_end=178175
loop_mode=loop_continuous
loop_start=60448
loop_xfade=14265
lovel=0
lpc=5LZhQQu1OMJ05ZNCaCCfwuADikLg2U3CItACQuRFkcEhuiVBtonQwJnQsUD8GsDAA669QCH9hsAl02dAfkSfwHaAwECT65jAC9smQK0xkL6jK6i/V5HgP5kIjb9c59w+
lpc_rms=-34.06
pitch_keycenter=f#4
sample=Trumpet_flatter_MF_F#4.opus
tune=-6
</region>

<region>
hikey=f#5
hivel=127
lokey=f5
loop_end=177805
loop_mode=loop_continuous
loop_start=60322
loop_xfade=14235
lovel=0
lpc=p3QvQTzt0cE64gVCzDf2wSd6z0G4yJDBKfggQU5ifsCqPhJAdS+Bv7Zp6j4HQg+/n6xPQAQyTsBcPNw/kbrzvovkpz9zC5i/Vb0wP/BADUCYAI7AFNzIQPKntcCsR19A
lpc_rms=-24.65
pitch_keycenter=f#5
sample=Trumpet_flatter_MF_F#5.opus
tune=-28
</region>

<region>
hikey=g#3
hivel=127
lokey=g3
loop_end=177080
loop_mode=loop_continuous
loop_start=60076
loop_xfade=14177
lovel=0
lpc=uKq4QW9focJTygBD2AEAw2asvkJmLHTCIq8KQrCPj8FId0JBNxA+waD8H0FCjbbATfTsP2yX1b3qvSQ/ai1EwA7CtEA91tDAcbqnQG/IHcCAm6O9jlR8P3KTTL8q4sI+
lpc_rms=-36.35
pitch_keycenter=g#3
sample=Trumpet_flatter_MF_G#3.opus
tune=+25
</region>

<region>
hikey=g#4
hivel=127
lokey=g4
loop_end=178223
loop_mode=loop_continuous
loop_start=60464
loop_xfade=14269
lovel=0
lpc=24WfQQVYg8KgjMlCyarGwgZOmUJG+UnCqhbYQU41XcHyyTNB56ctwU/hE0Eq3AHBkE6/QEJwEsDKyok/k2xSwOudtUBmLLzAJkiKQPdklL9QajTAjFGtQNk5l8Dk2wFA
lpc_rms=-31.96
pitch_keycenter=g#4
sample=Trumpet_flatter_MF_G#4.opus
tune=-21
</region>

<region>
hikey=g#5
hivel=127
lokey=g5
loop_end=177662
loop_mode=loop_continuous
loop_start=60273
loop_xfade=14224
lovel=0
lpc=weWAQUFqwcHAy8JBdEWIwapEhEFGFiHBsVMBQY3lbcBW0JxA1GDCvxAYUkAiFyC/m8kwQFhGGb8TRUVAsSw9vyTHMECS8Ky9BOMKQJqFaD98kBk/DdLvP+AvTr9zCJVA
lpc_rms=-26.30
pitch_keycenter=g#5
sample=Trumpet_flatter_MF_G#5.opus
tune=-45
</region>
</group>

<group>
group_label=FF
lpc_hicc1=127
lpc_locc1=85

<region>
hikey=a#3
hivel=127
lokey=a3
loop_end=179576
loop_mode=loop_continuous
loop_start=60923
loop_xfade=14377
lovel=0
lpc=+n4bQVAE8MEPWjxCjbRSwhLzR0KlsSnCzVT9QVDtpsFb51ZBNy0ZwXqKAUGcIfDA+TjdQCyQusDvXKdARFKuwJJuxEBL987ALxfFQM+vnsAF/VJAfCDOvywg1T5gD0s9
lpc_rms=-31.83
pitch_keycenter=a#3
sample=Trumpet_flatter_FF_A#3.opus
tune=+12
</region>

<region>
hikey=a#4
hivel=127
lokey=a4
loop_end=180307
loop_mode=loop_continuous
loop_start=61171
loop_xfade=14436
lovel=0
lpc=v8qnQGuHS8HJXoFB7qx5wVP4XUEPijjBOdoMQcVf4sDCO9JAgy2/wGLPoUDquonARh5rQLrDPsDVgDFAnyE+wAPTRkB8HzXATkgGQBXDYb+8CgQ9Wmf6PnjaAL8u4aQ+
lpc_rms=-26.81
pitch_keycenter=a#4
sample=Trumpet_flatter_FF_A#4.opus
tune=-19
</region>

<region>
hikey=a#5
hivel=127
lokey=a5
loop_end=178890
loop_mode=loop_continuous
loop_start=60690
loop_xfade=14322
lovel=0
lpc=3Eb+QGZD9r/qjexApouFvvLCv0BL/3Y/tsyXQMoiA0CnX4BAuq8qQDXUVUCHxlVA2gozQEW6XEBS2kVAD01KQKl0TEDgJE1A7gdIQKrHUEBCqjRAjZ9zQFp3DkBd/pRA
lpc_rms=-21.66
pitch_keycenter=a#5
sample=Trumpet_flatter_FF_A#5.opus
tune=-56
</region>

<region>
hikey=c4
hivel=127
lokey=b3
loop_end=178898
loop_mode=loop_continuous
loop_start=60693
loop_xfade=14323
lovel=0
lpc=BxwKQZV0yMFngxNCUkYdwpZpEUL+Y/TBJeq9QUtki8HCxklB9AkQwV7wzkCaHZfABHloQBg7TcBTu1pAVRt4wLrjg0BCD4XAH0trQHNCJsATk6g/hW0KvwNZRz5E2Ba9
lpc_rms=-32.44
pitch_keycenter=c4
sample=Trumpet_flatter_FF_C4.opus
tune=+2
</region>

<region>
hikey=c5
hivel=127
lokey=b4
loop_end=180772
loop_mode=loop_continuous
loop_start=61329
loop_xfade=14473
lovel=0
lpc=aeWYQNUwNsGDvmpBwBFlweTVTkFB+CvB3YUBQZGmtMCBO4lAalNPwPXVJUA+svy/KlO5P6/wW78z430/kZ+tvw8V+D8CixHAeUASQO9V8L+KOqA//Y4Zv3JySD4ufrq8
lpc_rms=-27.92
pitch_keycenter=c5
sample=Trumpet_flatter_FF_C5.opus
tune=+5
</region>

<region>
hikey=F6
hivel=127
lokey=b5
loop_end=210964
loop_mode=loop_continuous
loop_start=71572
loop_xfade=16890
lovel=0
lpc=LJMOQcu3tr5k0mFAcK/eu9GrM0CtWjE/v9IMQPIRlD/xGu4/P6KlP9ol2T9UasA/qWjMP/v/yz/car4/CgnzPwuCgD8dWRVA9B4lP1AJK0BIYOI8kIp9QHawgMDZjj/A
lpc_rms=-20.22
pitch_keycenter=C6
sample=Trumpet_flatter_FF_C6.opus
tune=-25
</region>

<region>
hikey=d4
hivel=127
lokey=c#4
loop_end=179671
loop_mode=loop_continuous
loop_start=60955
loop_xfade=14385
lovel=0
lpc=xHbmQMTBn8FuJuhBOGH1wfmV4UF597zBtOmVQfECYsHPSChB2frzwEluukDhDY7AZiFrQDHVUcBTtlJAjHtLwON7RUB/wjfAp6kaQHnhm78lMnU+oGqGPnUpRL4SAcA9
lpc_rms=-32.25
pitch_keycenter=d4
sample=Trumpet_flatter_FF_D4.opus
tune=-7
</region>

<region>
hikey=d5
hivel=127
lokey=c#5
loop_end=179591
loop_mode=loop_continuous
loop_start=60928
loop_xfade=14378
lovel=0
lpc=mMHCQLrBdcEygZ9Bjf+UwWyxfEFSN03B7o0fQd+/3MArpJRAveA3wK1wB0A6awLAjtEfQFDoKcAfeTJAy4ZBwLALWEAapnLAyrqIQHl3YcDCvAFAjv2svgbhH7/L1Ng+
lpc_rms=-25.44
pitch_keycenter=d5
sample=Trumpet_flatter_FF_D5.opus
tune=-7
</region>

<region>
hikey=e4
hivel=127
lokey=d#4
loop_end=178851
loop_mode=loop_continuous
loop_start=60677
loop_xfade=14319
lovel=0
lpc=3i/+QH6PucEvJgtChSgWwpmVC0KESOzBlEu2QYm3hsFIVkhBcCESwVs73UD9rq7AByiRQITTacCPbVFA8y9ewL4wd0A7a4HAL9ViQPCfGMC/wpU/dsbcvmAU5zxlHcE9
lpc_rms=-30.89
pitch_keycenter=e4
sample=Trumpet_flatter_FF_E4.opus
tune=-4
</region>

<region>
hikey=e5
hivel=127
lokey=d#5
loop_end=177283
loop_mode=loop_continuous
loop_start=60145
loop_xfade=14193
lovel=0
lpc=xp8BQehkpcFcuOFBHhviwTZ+ykEXTKfBNJWFQQe5TsFhiyZBaYLzwGc5vUBbnZrAv0iTQK3sgMDs2HFAS6ZFwLc+IEBelvK/3XJoP2+TFz/zNcS/STkEQCvK9b8SO5g/
lpc_rms=-24.13
pitch_keycenter=e5
sample=Trumpet_flatter_FF_E5.opus
tune=-23
</region>

<region>
hivel=127
key=f#3
loop_end=177315
loop_mode=loop_continuous
loop_start=60156
loop_xfade=14196
lovel=0
lpc=CcQjQauc/MG0NENCAFdYwoEoTkIUvDLCDHkPQg4K58GkKspBkKO3wbUrpUH8b5DBhsJoQfPsL8GUkQ5Bjl4EwVjv9kDwlNDAfWGcQBVVP8AvWoM/4z6ZPpfYBr8gkkQ+
lpc_rms=-33.69
sample=Trumpet_flatter_FF_F#3.opus
tune=+25
</region>

<region>
hikey=f#4
hivel=127
lokey=f4
loop_end=180722
loop_mode=loop_continuous
loop_start=61312
loop_xfade=14469
lovel=0
lpc=5LKXQBvTL8EebFdBlSNFwaNwLEHhWQzBvRLaQLSSpsDvJIdAPfZEwGzdFEBaxt2/FLLMP7qIu79Gvb8/xe3Fvzywuj9jeYS/HCwEP7/WMz3dnrS+pWXVPuOWd76hnNo9
lpc_rms=-30.16
pitch_keycenter=f#4
sample=Trumpet_flatter_FF_F#4.opus
tune=-3
</region>

<region>
hikey=f#5
hivel=127
lokey=f5
loop_end=176932
loop_mode=loop_continuous
loop_start=60026
loop_xfade=14165
lovel=0
lpc=azSpQPE6KcFqJ0ZBeCY3we4WKkHQRwnBQijWQIB0m8A65YJARMFPwDldJ0DS5qW/okOZP+E5Dr9f45I+gymCPdYy9DzJedo+YHnOvlY8jD+JXky/zISQP2o8qr8rJ6Y/
lpc_rms=-22.52
pitch_keycenter=f#5
sample=Trumpet_flatter_FF_F#5.opus
tune=-25
</region>

<region>
hikey=g#3
hivel=127
lokey=g3
loop_end=181237
loop_mode=loop_continuous
loop_start=61487
loop_xfade=14510
lovel=0
lpc=8+EdQWif7cHwvjFCowU9wgLrLELU7RDCAKbhQcQnqcHmuIRBr7FjwQRPTUHQdzTB4aQVQZ397cDaTsBAlvClwEv1ikA7kUXAHsbBP+sD7D14QZG/K5OxPxtxk794KAc/
lpc_rms=-30.64
pitch_keycenter=g#3
sample=Trumpet_flatter_FF_G#3.opus
tune=+31
</region>

<region>
hikey=g#4
hivel=127
lokey=g4
loop_end=178127
loop_mode=loop_continuous
loop_start=60431
loop_xfade=14261
lovel=0
lpc=/HjMQNKCiME91LxBV2fBwQHysUGesZnBZvF1QVSTO8Gfvw5Bp7HXwLKco0DpFIrATLd3QCLNW8DLlE9A5ERKwF4EUEAicUzASPcxQCgV3L8ENCA/1CzUPYwH577U1M4+
lpc_rms=-27.88
pitch_keycenter=g#4
sample=Trumpet_flatter_FF_G#4.opus
tune=-19
</region>

<region>
hikey=g#5
hivel=127
lokey=g5
loop_end=178561
loop_mode=loop_continuous
loop_start=60579
loop_xfade=14296
lovel=0
lpc=9S2aQP6H4sAijQRBVBftwKwF90B2n8DASO21QFkLb8D9qllAdrkCwO7bEUAxpUq/JnJpPzadoT5AXyA9sxt0P/VpGL+dU+A/RYmJv/pm8j8QdL6/8+YZQBB52b9PpAVA
lpc_rms=-24.18
pitch_keycenter=g#5
sample=Trumpet_flatter_FF_G#5.opus
tune=-26
</region>
</group>